<svg width="138" height="40" viewBox="0 0 138 40" fill="none" xmlns="http://www.w3.org/2000/svg">
<g clip-path="url(#clip0_1_135)">
<path d="M34.8604 29.1189C33.9286 31.1856 33.4815 32.1078 32.2813 33.9335C30.607 36.4844 28.246 39.657 25.3206 39.6857C22.7201 39.7094 22.0518 37.9952 18.5238 38.0131C14.9965 38.0318 14.2602 39.7154 11.6612 39.6917C8.73572 39.6651 6.49845 36.7986 4.82268 34.2498C0.13969 27.1205 -0.350299 18.7544 2.53711 14.3074C4.58951 11.1481 7.82848 9.29876 10.8744 9.29876C13.9756 9.29876 15.9246 10.9983 18.487 10.9983C20.9741 10.9983 22.4886 9.29596 26.074 9.29596C28.7828 9.29596 31.6536 10.7729 33.7003 13.3196C26.9986 16.9918 28.0884 26.5593 34.8604 29.1189Z" fill="black"/>
<path d="M23.3557 6.44507C24.6577 4.7736 25.6469 2.41422 25.2882 0.00170898C23.1598 0.14877 20.6705 1.50264 19.2186 3.26665C17.9 4.86782 16.8117 7.24283 17.2342 9.55204C19.5578 9.62306 21.9611 8.23563 23.3557 6.44507Z" fill="black"/>
<path d="M46.749 17.7882C46.749 19.2366 45.6479 20.4044 43.924 20.4044C42.2705 20.4044 41.1694 19.2344 41.2038 17.7882C41.1694 16.2746 42.2708 15.1384 43.9587 15.1384C45.6467 15.1384 46.7153 16.2746 46.749 17.7882ZM41.3432 39.3121V22.4714H46.5778V39.3121H41.3432ZM55.4265 20.5092H49.194V16.1016H67.0312V20.5092H60.6954V39.3121H55.4251L55.4265 20.5092ZM83.6627 33.9063C83.6627 36.1093 83.7323 37.8999 83.799 39.3132H79.2538L79.0128 36.9372H78.9081C78.2538 37.9695 76.669 39.6932 73.6381 39.6932C70.2285 39.6932 67.7149 37.5561 67.7149 32.3566V22.4749H72.9842V31.5317C72.9842 33.9765 73.7761 35.4562 75.6011 35.4562C77.0487 35.4562 77.8744 34.4584 78.218 33.632C78.3543 33.3221 78.3879 32.9089 78.3879 32.4957V22.4749H83.6585V33.907L83.6627 33.9063ZM87.8622 27.8429C87.8622 25.7411 87.7934 23.9506 87.7253 22.4721H92.2705L92.5115 24.7798H92.6162C93.3041 23.713 95.0244 22.0938 97.8157 22.0938C101.26 22.0938 103.84 24.3665 103.84 29.325V39.3121H98.607V29.9793C98.607 27.8114 97.8489 26.3294 95.9564 26.3294C94.5088 26.3294 93.6484 27.3293 93.3055 28.2899C93.1685 28.6342 93.0999 29.1165 93.0999 29.5985V39.3093H87.865V27.8436L87.8622 27.8429ZM112.07 32.5626C112.242 34.7319 114.378 35.7655 116.822 35.7655C118.613 35.7655 120.06 35.5245 121.47 35.0776L122.16 38.6228C120.439 39.3121 118.338 39.6897 116.063 39.6897C110.346 39.6897 107.076 36.3504 107.076 31.0799C107.076 26.8094 109.728 22.0938 115.581 22.0938C121.023 22.0938 123.089 26.3273 123.089 30.4967C123.089 31.3919 122.985 32.1846 122.918 32.5619L112.07 32.5626ZM118.234 28.9793C118.234 27.7066 117.682 25.5703 115.272 25.5703C113.068 25.5703 112.173 27.5668 112.034 28.9793H118.234ZM126.187 34.7319C127.153 35.3151 129.149 36.0044 130.698 36.0044C132.283 36.0044 132.937 35.4522 132.937 34.5921C132.937 33.732 132.42 33.3188 130.457 32.6638C126.979 31.4938 125.636 29.5997 125.671 27.6363C125.671 24.4684 128.357 22.091 132.525 22.091C134.487 22.091 136.246 22.5395 137.278 23.0568L136.347 26.673C135.588 26.2598 134.144 25.7073 132.697 25.7073C131.424 25.7073 130.7 26.2245 130.7 27.0846C130.7 27.8773 131.354 28.2912 133.42 29.0136C136.623 30.1147 137.966 31.7346 138.001 34.2131C138.001 37.3473 135.522 39.689 130.7 39.689C128.498 39.689 126.531 39.171 125.259 38.4816L126.187 34.7319Z" fill="black"/>
</g>
<defs>
<clipPath id="clip0_1_135">
<rect width="137.255" height="39.6941" fill="white" transform="translate(0.744995)"/>
</clipPath>
</defs>
</svg>
