<svg width="163" height="32" viewBox="0 0 163 32" fill="none" xmlns="http://www.w3.org/2000/svg">
<g clip-path="url(#clip0_1_114)">
<path d="M38.3143 21.2338C38.3143 27.749 42.3274 31.6484 48.2902 31.6484C51.2635 31.6484 53.7656 30.8198 55.1629 28.6426V31.6484H60.6057V0.615906H54.9517V13.8088C53.6681 11.6316 51.296 10.6568 48.3227 10.6568C42.5062 10.6405 38.3143 14.6211 38.3143 21.2338ZM55.1304 21.2338C55.1304 24.9545 52.5958 27.2779 49.5575 27.2779C46.4055 27.2779 43.9847 24.9545 43.9847 21.2338C43.9847 17.4482 46.4218 15.0761 49.5575 15.0761C52.5958 15.0761 55.1304 17.4807 55.1304 21.2338Z" fill="black"/>
<path d="M78.2016 23.6384C77.5517 26.043 75.9108 27.2453 73.3274 27.2453C70.3217 27.2453 67.8521 25.4256 67.7871 22.2086H82.036C82.2147 21.4125 82.296 20.5677 82.296 19.6416C82.296 13.8737 78.3641 10.6243 72.5638 10.6243C66.3735 10.6243 62.1167 15.0273 62.1167 21.0063C62.1167 27.6678 66.8122 31.6646 73.3112 31.6646C78.2179 31.6646 81.5486 29.6174 83.0109 25.5394L78.2016 23.6384ZM67.7871 18.4393C68.3232 16.1159 70.2567 14.7511 72.58 14.7511C75.1146 14.7511 76.8369 16.1159 76.8369 18.2605L76.8044 18.4393H67.7871Z" fill="black"/>
<path d="M99.177 23.6384C98.5271 26.043 96.8861 27.2453 94.3028 27.2453C91.297 27.2453 88.8274 25.4256 88.7624 22.2086H103.011C103.19 21.4125 103.271 20.5677 103.271 19.6416C103.271 13.8737 99.3395 10.6243 93.5392 10.6243C87.3489 10.6243 83.0921 15.0273 83.0921 21.0063C83.0921 27.6678 87.7876 31.6646 94.2865 31.6646C99.1932 31.6646 102.524 29.6174 103.986 25.5394L99.177 23.6384ZM88.7624 18.4393C89.2986 16.1159 91.232 14.7511 93.5554 14.7511C96.09 14.7511 97.8122 16.1159 97.8122 18.2605L97.7797 18.4393H88.7624Z" fill="black"/>
<path d="M123.223 31.6809V26.5629H111.346L122.898 15.3197V10.6405H104.62V15.5147H115.782L104.262 26.8066V31.6809H123.223Z" fill="black"/>
<path d="M139.747 23.6384C139.097 26.043 137.456 27.2453 134.872 27.2453C131.867 27.2453 129.397 25.4256 129.332 22.2086H143.581C143.76 21.4125 143.841 20.5677 143.841 19.6416C143.841 13.8737 139.909 10.6243 134.109 10.6243C127.919 10.6243 123.662 15.0273 123.662 21.0063C123.662 27.6678 128.357 31.6646 134.856 31.6646C139.763 31.6646 143.094 29.6174 144.556 25.5394L139.747 23.6384ZM129.332 18.4393C129.868 16.1159 131.802 14.7511 134.125 14.7511C136.66 14.7511 138.382 16.1159 138.382 18.2605L138.349 18.4393H129.332Z" fill="black"/>
<path d="M32.514 10.6405H25.5439V14.7186H32.514V10.6405Z" fill="#40AB5D"/>
<path d="M32.514 16.2946H25.5439V20.3726H32.514V16.2946Z" fill="url(#paint0_linear_1_114)"/>
<path d="M32.514 21.9487H25.5439V26.0268H32.514V21.9487Z" fill="url(#paint1_linear_1_114)"/>
<path d="M7.24936 27.6028H0.279236V31.6809H7.24936V27.6028Z" fill="url(#paint2_linear_1_114)"/>
<path d="M15.6655 27.6028H8.69537V31.6809H15.6655V27.6028Z" fill="url(#paint3_linear_1_114)"/>
<path d="M24.0979 27.6028H17.1278V31.6809H24.0979V27.6028Z" fill="url(#paint4_linear_1_114)"/>
<path d="M32.514 27.6028H25.5439V31.6809H32.514V27.6028Z" fill="url(#paint5_linear_1_114)"/>
<path d="M24.0979 21.9487H17.1278V26.0268H24.0979V21.9487Z" fill="url(#paint6_linear_1_114)"/>
<path d="M15.6655 21.9487H8.69537V26.0268H15.6655V21.9487Z" fill="url(#paint7_linear_1_114)"/>
<path d="M15.6655 16.2946H8.69537V20.3726H15.6655V16.2946Z" fill="url(#paint8_linear_1_114)"/>
<path d="M157.245 17.9031C157.245 18.1143 157.245 18.5042 157.245 18.5042H162.753C162.753 18.5042 162.753 17.4644 162.753 16.8957C162.753 13.2888 160.495 10.673 156.709 10.673C154.272 10.673 152.55 11.859 151.656 13.825V10.673H145.969V31.6808H151.656V18.1468C151.656 16.0021 152.81 14.8161 154.581 14.8161C156.205 14.8323 157.245 16.3596 157.245 17.9031Z" fill="black"/>
</g>
<defs>
<linearGradient id="paint0_linear_1_114" x1="29.0631" y1="20.4079" x2="28.9976" y2="16.2347" gradientUnits="userSpaceOnUse">
<stop stop-color="#358C7B"/>
<stop offset="0.5256" stop-color="#33A65E"/>
</linearGradient>
<linearGradient id="paint1_linear_1_114" x1="25.4414" y1="25.8174" x2="32.6197" y2="22.1599" gradientUnits="userSpaceOnUse">
<stop stop-color="#222B90"/>
<stop offset="1" stop-color="#367B99"/>
</linearGradient>
<linearGradient id="paint2_linear_1_114" x1="0.280511" y1="29.6434" x2="7.24481" y2="29.6434" gradientUnits="userSpaceOnUse">
<stop stop-color="#FF9900"/>
<stop offset="1" stop-color="#FF8000"/>
</linearGradient>
<linearGradient id="paint3_linear_1_114" x1="8.70314" y1="29.6434" x2="15.6674" y2="29.6434" gradientUnits="userSpaceOnUse">
<stop stop-color="#FF8000"/>
<stop offset="1" stop-color="#CC1953"/>
</linearGradient>
<linearGradient id="paint4_linear_1_114" x1="17.1258" y1="29.6434" x2="24.0901" y2="29.6434" gradientUnits="userSpaceOnUse">
<stop stop-color="#CC1953"/>
<stop offset="1" stop-color="#241284"/>
</linearGradient>
<linearGradient id="paint5_linear_1_114" x1="25.5402" y1="29.6434" x2="32.5044" y2="29.6434" gradientUnits="userSpaceOnUse">
<stop stop-color="#222B90"/>
<stop offset="1" stop-color="#3559A6"/>
</linearGradient>
<linearGradient id="paint6_linear_1_114" x1="16.8509" y1="25.0872" x2="24.3649" y2="22.89" gradientUnits="userSpaceOnUse">
<stop stop-color="#CC1953"/>
<stop offset="1" stop-color="#241284"/>
</linearGradient>
<linearGradient id="paint7_linear_1_114" x1="8.45525" y1="22.631" x2="15.9153" y2="25.3463" gradientUnits="userSpaceOnUse">
<stop offset="0.00266984" stop-color="#FFCC00"/>
<stop offset="0.9999" stop-color="#CE1938"/>
</linearGradient>
<linearGradient id="paint8_linear_1_114" x1="9.2885" y1="15.6608" x2="15.0821" y2="21.0069" gradientUnits="userSpaceOnUse">
<stop offset="0.00266984" stop-color="#FFD100"/>
<stop offset="1" stop-color="#FD5A22"/>
</linearGradient>
<clipPath id="clip0_1_114">
<rect width="162.474" height="31.065" fill="white" transform="translate(0.279175 0.608765)"/>
</clipPath>
</defs>
</svg>
