<svg width="65" height="65" viewBox="0 0 65 65" fill="none" xmlns="http://www.w3.org/2000/svg">
<circle cx="32.5" cy="32.5" r="32.5" fill="#F9E3FD"/>
<path d="M32.5 37.125C31.5853 37.125 30.6911 36.8538 29.9305 36.3455C29.1699 35.8373 28.5771 35.115 28.2271 34.2699C27.877 33.4248 27.7854 32.4949 27.9639 31.5977C28.1423 30.7005 28.5828 29.8765 29.2296 29.2296C29.8764 28.5828 30.7005 28.1423 31.5977 27.9639C32.4949 27.7854 33.4248 27.877 34.2699 28.2271C35.115 28.5771 35.8373 29.1699 36.3455 29.9305C36.8537 30.6911 37.125 31.5853 37.125 32.5C37.1235 33.7262 36.6357 34.9017 35.7687 35.7687C34.9017 36.6357 33.7262 37.1235 32.5 37.125ZM32.5 30.1875C32.0426 30.1875 31.5955 30.3231 31.2152 30.5772C30.835 30.8313 30.5386 31.1925 30.3635 31.615C30.1885 32.0376 30.1427 32.5026 30.2319 32.9511C30.3212 33.3997 30.5414 33.8118 30.8648 34.1352C31.1882 34.4586 31.6003 34.6788 32.0489 34.7681C32.4974 34.8573 32.9624 34.8115 33.385 34.6365C33.8075 34.4614 34.1687 34.165 34.4228 33.7848C34.6769 33.4045 34.8125 32.9574 34.8125 32.5C34.8119 31.8869 34.5681 31.299 34.1345 30.8655C33.701 30.4319 33.1131 30.1881 32.5 30.1875ZM19.7813 37.125C18.8665 37.125 17.9723 36.8538 17.2117 36.3455C16.4512 35.8373 15.8584 35.115 15.5083 34.2699C15.1583 33.4248 15.0667 32.4949 15.2451 31.5977C15.4236 30.7005 15.8641 29.8765 16.5109 29.2296C17.1577 28.5828 17.9818 28.1423 18.879 27.9639C19.7761 27.7854 20.7061 27.877 21.5512 28.2271C22.3963 28.5771 23.1186 29.1699 23.6268 29.9305C24.135 30.6911 24.4062 31.5853 24.4062 32.5C24.4047 33.7262 23.917 34.9017 23.0499 35.7687C22.1829 36.6357 21.0074 37.1235 19.7813 37.125ZM19.7813 30.1875C19.3239 30.1875 18.8768 30.3231 18.4965 30.5772C18.1162 30.8313 17.8198 31.1925 17.6448 31.615C17.4698 32.0376 17.424 32.5026 17.5132 32.9511C17.6024 33.3997 17.8227 33.8118 18.1461 34.1352C18.4695 34.4586 18.8815 34.6788 19.3301 34.7681C19.7787 34.8573 20.2437 34.8115 20.6662 34.6365C21.0888 34.4614 21.4499 34.165 21.704 33.7848C21.9581 33.4045 22.0938 32.9574 22.0938 32.5C22.0931 31.8869 21.8493 31.299 21.4158 30.8655C20.9822 30.4319 20.3944 30.1881 19.7813 30.1875ZM25.5625 49.8438C24.6478 49.8438 23.7536 49.5725 22.993 49.0643C22.2324 48.5561 21.6396 47.8338 21.2896 46.9887C20.9395 46.1436 20.8479 45.2136 21.0264 44.3165C21.2048 43.4193 21.6453 42.5952 22.2921 41.9484C22.9389 41.3016 23.763 40.8611 24.6602 40.6826C25.5574 40.5042 26.4873 40.5958 27.3324 40.9458C28.1775 41.2959 28.8998 41.8887 29.408 42.6492C29.9162 43.4098 30.1875 44.304 30.1875 45.2188C30.186 46.4449 29.6982 47.6204 28.8312 48.4874C27.9642 49.3545 26.7887 49.8422 25.5625 49.8438ZM25.5625 42.9063C25.1051 42.9063 24.658 43.0419 24.2777 43.296C23.8975 43.5501 23.6011 43.9112 23.426 44.3338C23.251 44.7563 23.2052 45.2213 23.2944 45.6699C23.3837 46.1185 23.6039 46.5305 23.9273 46.8539C24.2507 47.1773 24.6628 47.3976 25.1114 47.4868C25.5599 47.576 26.0249 47.5303 26.4475 47.3552C26.87 47.1802 27.2312 46.8838 27.4853 46.5035C27.7394 46.1232 27.875 45.6761 27.875 45.2188C27.8744 44.6056 27.6306 44.0178 27.197 43.5842C26.7635 43.1507 26.1756 42.9069 25.5625 42.9063ZM39.4375 49.8438C38.5228 49.8438 37.6286 49.5725 36.868 49.0643C36.1074 48.5561 35.5146 47.8338 35.1646 46.9887C34.8145 46.1436 34.7229 45.2136 34.9014 44.3165C35.0798 43.4193 35.5203 42.5952 36.1671 41.9484C36.8139 41.3016 37.638 40.8611 38.5352 40.6826C39.4324 40.5042 40.3623 40.5958 41.2074 40.9458C42.0525 41.2959 42.7748 41.8887 43.283 42.6492C43.7912 43.4098 44.0625 44.304 44.0625 45.2188C44.061 46.4449 43.5732 47.6204 42.7062 48.4874C41.8392 49.3545 40.6637 49.8422 39.4375 49.8438ZM39.4375 42.9063C38.9801 42.9063 38.533 43.0419 38.1527 43.296C37.7725 43.5501 37.4761 43.9112 37.301 44.3338C37.126 44.7563 37.0802 45.2213 37.1694 45.6699C37.2587 46.1185 37.4789 46.5305 37.8023 46.8539C38.1257 47.1773 38.5378 47.3976 38.9864 47.4868C39.4349 47.576 39.8999 47.5303 40.3225 47.3552C40.745 47.1802 41.1062 46.8838 41.3603 46.5035C41.6144 46.1232 41.75 45.6761 41.75 45.2188C41.7494 44.6056 41.5056 44.0178 41.072 43.5842C40.6385 43.1507 40.0506 42.9069 39.4375 42.9063ZM45.2188 37.125C44.304 37.125 43.4098 36.8538 42.6492 36.3455C41.8887 35.8373 41.2959 35.115 40.9458 34.2699C40.5958 33.4248 40.5042 32.4949 40.6826 31.5977C40.8611 30.7005 41.3016 29.8765 41.9484 29.2296C42.5952 28.5828 43.4193 28.1423 44.3165 27.9639C45.2136 27.7854 46.1436 27.877 46.9887 28.2271C47.8338 28.5771 48.5561 29.1699 49.0643 29.9305C49.5725 30.6911 49.8438 31.5853 49.8438 32.5C49.8422 33.7262 49.3545 34.9017 48.4874 35.7687C47.6204 36.6357 46.4449 37.1235 45.2188 37.125ZM45.2188 30.1875C44.7614 30.1875 44.3143 30.3231 43.934 30.5772C43.5537 30.8313 43.2573 31.1925 43.0823 31.615C42.9073 32.0376 42.8615 32.5026 42.9507 32.9511C43.0399 33.3997 43.2602 33.8118 43.5836 34.1352C43.907 34.4586 44.319 34.6788 44.7676 34.7681C45.2162 34.8573 45.6812 34.8115 46.1037 34.6365C46.5263 34.4614 46.8874 34.165 47.1415 33.7848C47.3956 33.4045 47.5313 32.9574 47.5313 32.5C47.5306 31.8869 47.2868 31.299 46.8533 30.8655C46.4197 30.4319 45.8319 30.1881 45.2188 30.1875ZM39.4375 24.4063C38.5228 24.4063 37.6286 24.135 36.868 23.6268C36.1074 23.1186 35.5146 22.3963 35.1646 21.5512C34.8145 20.7061 34.7229 19.7761 34.9014 18.879C35.0798 17.9818 35.5203 17.1577 36.1671 16.5109C36.8139 15.8641 37.638 15.4236 38.5352 15.2451C39.4324 15.0667 40.3623 15.1583 41.2074 15.5083C42.0525 15.8584 42.7748 16.4512 43.283 17.2117C43.7912 17.9723 44.0625 18.8665 44.0625 19.7813C44.061 21.0074 43.5732 22.1829 42.7062 23.0499C41.8392 23.917 40.6637 24.4047 39.4375 24.4063ZM39.4375 17.4688C38.9801 17.4688 38.533 17.6044 38.1527 17.8585C37.7725 18.1126 37.4761 18.4737 37.301 18.8963C37.126 19.3189 37.0802 19.7838 37.1694 20.2324C37.2587 20.681 37.4789 21.093 37.8023 21.4164C38.1257 21.7398 38.5378 21.9601 38.9864 22.0493C39.4349 22.1385 39.8999 22.0928 40.3225 21.9177C40.745 21.7427 41.1062 21.4463 41.3603 21.066C41.6144 20.6857 41.75 20.2386 41.75 19.7813C41.7494 19.1681 41.5056 18.5803 41.072 18.1467C40.6385 17.7132 40.0506 17.4694 39.4375 17.4688ZM25.5625 24.4063C24.6478 24.4063 23.7536 24.135 22.993 23.6268C22.2324 23.1186 21.6396 22.3963 21.2896 21.5512C20.9395 20.7061 20.8479 19.7761 21.0264 18.879C21.2048 17.9818 21.6453 17.1577 22.2921 16.5109C22.9389 15.8641 23.763 15.4236 24.6602 15.2451C25.5574 15.0667 26.4873 15.1583 27.3324 15.5083C28.1775 15.8584 28.8998 16.4512 29.408 17.2117C29.9162 17.9723 30.1875 18.8665 30.1875 19.7813C30.186 21.0074 29.6982 22.1829 28.8312 23.0499C27.9642 23.917 26.7887 24.4047 25.5625 24.4063ZM25.5625 17.4688C25.1051 17.4688 24.658 17.6044 24.2777 17.8585C23.8975 18.1126 23.6011 18.4737 23.426 18.8963C23.251 19.3189 23.2052 19.7838 23.2944 20.2324C23.3837 20.681 23.6039 21.093 23.9273 21.4164C24.2507 21.7398 24.6628 21.9601 25.1114 22.0493C25.5599 22.1385 26.0249 22.0928 26.4475 21.9177C26.87 21.7427 27.2312 21.4463 27.4853 21.066C27.7394 20.6857 27.875 20.2386 27.875 19.7813C27.8744 19.1681 27.6306 18.5803 27.197 18.1467C26.7635 17.7132 26.1756 17.4694 25.5625 17.4688Z" fill="#A60FBE"/>
</svg>
