<svg width="65" height="65" viewBox="0 0 65 65" fill="none" xmlns="http://www.w3.org/2000/svg">
<circle cx="32.5" cy="32.5" r="32.5" fill="#E0EDFF"/>
<g clip-path="url(#clip0_1_399)">
<path d="M32.5 15C30.0625 15 27.9531 15.8906 26.1719 17.6719C24.3906 19.4531 23.5 21.5625 23.5 24V28.5C22.2344 28.5 21.168 28.9336 20.3008 29.8008C19.4336 30.668 19 31.7344 19 33V46.5C19 47.7656 19.4336 48.832 20.3008 49.6992C21.168 50.5664 22.2344 51 23.5 51H41.5C42.7656 51 43.832 50.5664 44.6992 49.6992C45.5664 48.832 46 47.7656 46 46.5V33C46 31.7344 45.5664 30.668 44.6992 29.8008C43.832 28.9336 42.7656 28.5 41.5 28.5V24C41.5 21.5625 40.6094 19.4531 38.8281 17.6719C37.0469 15.8906 34.9375 15 32.5 15ZM42.9766 33V46.5C42.9766 47.4844 42.4844 47.9766 41.5 47.9766H23.5C22.5156 47.9766 22.0234 47.4844 22.0234 46.5V33C22.0234 32.0156 22.5156 31.5234 23.5 31.5234H41.5C42.4844 31.5234 42.9766 32.0156 42.9766 33ZM26.5234 28.5V24C26.5234 22.3594 27.1094 20.9531 28.2812 19.7812C29.4531 18.6094 30.8594 18.0234 32.5 18.0234C34.1406 18.0234 35.5469 18.6094 36.7188 19.7812C37.8906 20.9531 38.4766 22.3594 38.4766 24V28.5H26.5234ZM32.5 33C31.2344 33 30.168 33.4336 29.3008 34.3008C28.4336 35.168 28 36.2344 28 37.5C28 38.4375 28.2812 39.293 28.8438 40.0664C29.4062 40.8398 30.1328 41.3906 31.0234 41.7188V43.4766C31.0234 44.5078 31.5156 45.0234 32.5 45.0234C33.4844 45.0234 33.9766 44.5078 33.9766 43.4766V41.7188C35.9922 41.0156 37 39.6094 37 37.5C37 36.2344 36.5664 35.168 35.6992 34.3008C34.832 33.4336 33.7656 33 32.5 33ZM32.5 38.9766C31.5156 38.9766 31.0234 38.4844 31.0234 37.5C31.0234 36.5156 31.5156 36.0234 32.5 36.0234C33.4844 36.0234 33.9766 36.5156 33.9766 37.5C33.9766 38.4844 33.4844 38.9766 32.5 38.9766Z" fill="#0055CC"/>
</g>
<defs>
<clipPath id="clip0_1_399">
<rect width="27" height="36" fill="white" transform="translate(19 15)"/>
</clipPath>
</defs>
</svg>
