<svg width="146" height="26" viewBox="0 0 146 26" fill="none" xmlns="http://www.w3.org/2000/svg">
<g clip-path="url(#clip0_1_108)">
<path d="M8.76306 0.429932H14.3802L14.196 13.4281C14.196 19.9732 11.8036 23.5535 6.6669 24.6657C4.85374 25.0935 2.98464 25.3996 1.12212 25.5871L0.0493601 25.699L0 19.6277L0.960876 19.5882C2.8564 19.5147 4.73348 19.1871 6.54186 18.6142C7.54222 18.2259 8.7499 17.2749 8.62814 13.4709V13.4478L8.76306 5.28039V0.429932ZM76.1626 1.42701C76.7122 2.12134 76.9787 2.96046 76.9425 3.81933V24.1787H71.4931V11.457L64.1944 22.7045C63.8785 23.2047 63.4277 23.6555 62.9045 23.9615C62.3944 24.2676 61.8548 24.4222 61.2263 24.4124C60.0087 24.4124 58.8636 23.7411 58.2515 22.6551L50.8573 11.3254V24.1787H45.3981V3.5824C45.3488 2.80251 45.6153 1.99629 46.155 1.35132C46.7374 0.739255 47.5173 0.42335 48.3005 0.449676C49.3502 0.400316 50.4197 0.949858 51.0515 1.90086L61.2657 16.9228L71.2694 1.93377C71.842 0.982765 72.9147 0.387153 74.05 0.449676C74.7871 0.42006 75.6098 0.768871 76.1626 1.42701ZM108.359 2.37472C107.592 0.755708 105.627 0.0547948 103.995 0.801778C103.311 1.14072 102.751 1.69026 102.422 2.37472L89.3944 24.2083H95.9725L99.3355 18.2029L111.35 18.1535L114.785 24.1754H121.113L108.359 2.37472ZM108.013 12.5791H102.521L105.239 8.03139L108.013 12.5791ZM41.8113 16.9392C41.9659 18.986 41.0775 21.0197 39.4486 22.3096L39.3367 22.382C37.4248 23.4943 35.299 24.0767 33.1206 24.0767C32.8146 24.0767 27.895 24.0438 27.895 24.0438C27.2599 24.0438 26.6051 24.0208 25.9535 23.9944C25.2448 23.9706 24.5398 23.8813 23.8475 23.7279C23.1532 23.5831 22.4786 23.3594 21.8237 23.0599C21.1524 22.744 20.5568 22.3162 20.0567 21.77L20.0468 21.7601C19.5123 21.1787 19.0955 20.4993 18.8194 19.7594C18.484 18.8513 18.3276 17.887 18.3587 16.9195V0.452966H23.7356V16.7221C23.7356 17.1597 23.7356 18.4892 27.4376 18.4892H32.808C36.4277 18.4892 36.4277 17.1597 36.4277 16.7221V0.452966H41.8146L41.8113 16.9392ZM80.7202 0.673442H86.3637V24.2742H80.7202V0.673442Z" fill="#282828"/>
<path d="M143.477 6.01746C143.276 5.6884 143.055 5.37907 142.815 5.08291C142.493 4.62222 142.124 4.19772 141.713 3.81929L141.325 3.43099L140.446 2.6873L139.561 2.07524L139.07 1.80211C137.369 0.85809 135.455 0.366357 133.509 0.373958C131.562 0.353601 129.644 0.846158 127.948 1.80211L127.458 2.07524L126.523 2.6873L125.638 3.43099L125.25 3.81929C124.84 4.20174 124.471 4.62516 124.147 5.08291C123.119 6.44786 122.417 8.03076 122.097 9.7096C121.919 10.4895 121.831 11.276 121.824 12.0723C121.84 13.2504 122.025 14.4186 122.374 15.5407C122.541 16.0839 122.745 16.615 122.986 17.1301L123.535 18.1239L123.864 18.5615C124.052 18.8939 124.276 19.2131 124.526 19.4961C125.003 20.0785 125.539 20.6083 126.115 21.0855L127 21.7469C127.29 21.9641 127.606 22.1483 127.935 22.2964C129.631 23.2473 131.545 23.7416 133.489 23.7312C135.431 23.7377 137.336 23.2639 139.051 22.3589L139.551 22.0266C140.03 21.7475 140.488 21.4352 140.923 21.092C141.196 20.8189 141.522 20.6017 141.746 20.3483L142.489 19.5257L143.151 18.6405L143.483 18.1502C144.568 16.3071 145.141 14.2076 145.142 12.069C145.168 9.93995 144.595 7.83721 143.49 6.02075H143.467V6.01746H143.477ZM142.124 9.20284L137.827 13.3886L138.82 19.3381L133.476 16.5345L128.201 19.3381L129.192 13.3886L124.904 9.20284L130.854 8.32423L133.549 2.92423L136.191 8.32423L142.124 9.20284Z" fill="#F8991D"/>
</g>
<defs>
<clipPath id="clip0_1_108">
<rect width="145.152" height="25.325" fill="white" transform="translate(0 0.374023)"/>
</clipPath>
</defs>
</svg>
