<svg width="143" height="34" viewBox="0 0 143 34" fill="none" xmlns="http://www.w3.org/2000/svg">
<path d="M16.88 28.32C14.5067 28.32 12.4667 27.8133 10.76 26.8C9.05333 25.76 7.74667 24.3733 6.84 22.64C5.93333 20.9067 5.48 19 5.48 16.92C5.48 14.8133 5.93333 12.9067 6.84 11.2C7.74667 9.46667 9.05333 8.09333 10.76 7.08C12.4667 6.04 14.5067 5.52 16.88 5.52C18.6133 5.52 20.1733 5.81333 21.56 6.4C22.9467 6.96 24.12 7.74667 25.08 8.76L24.24 9.6C23.36 8.72 22.3067 8.02667 21.08 7.52C19.8533 7.01333 18.4533 6.76 16.88 6.76C14.7467 6.76 12.9067 7.22667 11.36 8.16C9.84 9.06667 8.68 10.2933 7.88 11.84C7.08 13.36 6.68 15.0533 6.68 16.92C6.68 18.7867 7.08 20.4933 7.88 22.04C8.68 23.56 9.84 24.7867 11.36 25.72C12.9067 26.6267 14.7467 27.08 16.88 27.08C18.4533 27.08 19.8533 26.8267 21.08 26.32C22.3067 25.8133 23.36 25.12 24.24 24.24L25.08 25.08C24.12 26.0667 22.9467 26.8533 21.56 27.44C20.1733 28.0267 18.6133 28.32 16.88 28.32ZM16.88 30.96C14.7467 30.96 12.8133 30.6 11.08 29.88C9.37333 29.1333 7.89333 28.12 6.64 26.84C5.41333 25.56 4.46667 24.08 3.8 22.4C3.16 20.6933 2.84 18.8667 2.84 16.92C2.84 14.9733 3.16 13.16 3.8 11.48C4.46667 9.77333 5.41333 8.28 6.64 7C7.89333 5.69333 9.37333 4.68 11.08 3.96C12.8133 3.24 14.7467 2.88 16.88 2.88C18.9867 2.88 20.88 3.24 22.56 3.96C24.2667 4.65333 25.7333 5.62666 26.96 6.88L26.08 7.76C24.9867 6.61333 23.6533 5.72 22.08 5.08C20.5333 4.44 18.8 4.12 16.88 4.12C14.2667 4.12 11.9867 4.69333 10.04 5.84C8.12 6.98667 6.64 8.53333 5.6 10.48C4.56 12.4 4.04 14.5467 4.04 16.92C4.04 19.2667 4.56 21.4133 5.6 23.36C6.64 25.3067 8.12 26.8533 10.04 28C11.9867 29.1467 14.2667 29.72 16.88 29.72C18.8 29.72 20.5333 29.4 22.08 28.76C23.6533 28.12 24.9867 27.2267 26.08 26.08L26.96 26.96C25.7333 28.1867 24.2667 29.16 22.56 29.88C20.88 30.6 18.9867 30.96 16.88 30.96ZM16.88 33.6C14.3733 33.6 12.0933 33.1733 10.04 32.32C8.01333 31.44 6.26667 30.24 4.8 28.72C3.33333 27.2 2.2 25.44 1.4 23.44C0.6 21.4133 0.2 19.24 0.2 16.92C0.2 14.6 0.6 12.44 1.4 10.44C2.2 8.41333 3.33333 6.64 4.8 5.12C6.26667 3.6 8.01333 2.41333 10.04 1.56C12.0933 0.679998 14.3733 0.239997 16.88 0.239997C19.3333 0.239997 21.5733 0.666664 23.6 1.52C25.6267 2.34666 27.3733 3.50666 28.84 5L28 5.84C26.64 4.48 25.0133 3.41333 23.12 2.64C21.2533 1.84 19.1733 1.44 16.88 1.44C14.5333 1.44 12.4133 1.84 10.52 2.64C8.62667 3.44 7 4.54667 5.64 5.96C4.28 7.37333 3.22667 9.02667 2.48 10.92C1.76 12.7867 1.4 14.7867 1.4 16.92C1.4 19.0533 1.76 21.0667 2.48 22.96C3.22667 24.8267 4.28 26.4667 5.64 27.88C7 29.2933 8.62667 30.4 10.52 31.2C12.4133 32 14.5333 32.4 16.88 32.4C19.1733 32.4 21.2533 32.0133 23.12 31.24C25.0133 30.44 26.64 29.36 28 28L28.84 28.84C27.3733 30.3067 25.6267 31.4667 23.6 32.32C21.5733 33.1733 19.3333 33.6 16.88 33.6ZM33.8947 33L40.8787 13.704H41.6467L34.6627 33H33.8947ZM30.5347 33L37.5187 13.704H38.2627L31.3027 33H30.5347ZM32.2147 33L39.1747 13.704H39.9667L32.9827 33H32.2147ZM47.9587 33L41.6947 15.696L42.0787 14.616L48.7267 33H47.9587ZM46.2787 33L40.8787 18.048L41.2387 16.944L47.0467 33H46.2787ZM44.5987 33L40.0387 20.376L40.4227 19.296L45.3667 33H44.5987ZM37.8067 26.616L38.0707 25.896H41.2387L41.5027 26.616H37.8067ZM37.2307 28.224L37.4947 27.504H41.8147L42.0787 28.224H37.2307ZM36.6547 29.808L36.9187 29.088H42.3907L42.6547 29.808H36.6547ZM53.5711 33V13.704H54.2911V33H53.5711ZM50.4031 33V13.704H51.1231V33H50.4031ZM51.9871 33V13.704H52.7071V33H51.9871ZM55.1551 24.936V24.216H60.7951C61.7071 24.216 62.5311 24.016 63.2671 23.616C64.0191 23.216 64.6111 22.648 65.0431 21.912C65.4911 21.176 65.7151 20.312 65.7151 19.32C65.7151 18.328 65.4911 17.464 65.0431 16.728C64.6111 15.992 64.0191 15.424 63.2671 15.024C62.5311 14.624 61.7071 14.424 60.7951 14.424H55.1551V13.704H60.7951C61.8351 13.704 62.7791 13.944 63.6271 14.424C64.4911 14.888 65.1711 15.544 65.6671 16.392C66.1791 17.224 66.4351 18.2 66.4351 19.32C66.4351 20.44 66.1791 21.424 65.6671 22.272C65.1711 23.104 64.4911 23.76 63.6271 24.24C62.7791 24.704 61.8351 24.936 60.7951 24.936H55.1551ZM55.1551 23.352V22.632H60.7951C61.7231 22.632 62.5071 22.344 63.1471 21.768C63.8031 21.176 64.1311 20.36 64.1311 19.32C64.1311 18.28 63.8031 17.472 63.1471 16.896C62.5071 16.304 61.7231 16.008 60.7951 16.008H55.1551V15.288H60.7951C61.5471 15.288 62.2271 15.456 62.8351 15.792C63.4431 16.112 63.9311 16.576 64.2991 17.184C64.6671 17.776 64.8511 18.488 64.8511 19.32C64.8511 20.152 64.6671 20.872 64.2991 21.48C63.9311 22.072 63.4431 22.536 62.8351 22.872C62.2271 23.192 61.5471 23.352 60.7951 23.352H55.1551ZM55.1551 21.768V21.048H60.7951C61.2751 21.048 61.6831 20.912 62.0191 20.64C62.3711 20.352 62.5471 19.912 62.5471 19.32C62.5471 18.712 62.3711 18.272 62.0191 18C61.6831 17.728 61.2751 17.592 60.7951 17.592H55.1551V16.872H60.7951C61.4831 16.872 62.0671 17.08 62.5471 17.496C63.0271 17.912 63.2671 18.52 63.2671 19.32C63.2671 20.12 63.0271 20.728 62.5471 21.144C62.0671 21.56 61.4831 21.768 60.7951 21.768H55.1551ZM65.4511 33L62.0671 25.584C62.1791 25.568 62.2911 25.552 62.4031 25.536C62.5311 25.504 62.6511 25.464 62.7631 25.416L66.2431 33H65.4511ZM63.6991 33L60.3631 25.752C60.4911 25.752 60.6191 25.752 60.7471 25.752C60.8911 25.736 61.0271 25.72 61.1551 25.704L64.4911 33H63.6991ZM61.9471 33L58.6351 25.776H59.4271L62.7391 33H61.9471ZM73.0379 33V32.28H75.6779C77.0379 32.28 78.2779 32.064 79.3979 31.632C80.5339 31.184 81.5179 30.56 82.3499 29.76C83.1819 28.96 83.8219 28.016 84.2699 26.928C84.7339 25.84 84.9659 24.648 84.9659 23.352C84.9659 22.056 84.7339 20.864 84.2699 19.776C83.8219 18.688 83.1819 17.744 82.3499 16.944C81.5179 16.144 80.5339 15.528 79.3979 15.096C78.2779 14.648 77.0379 14.424 75.6779 14.424H73.0379V13.704H75.7019C77.1579 13.704 78.4939 13.944 79.7099 14.424C80.9259 14.904 81.9819 15.576 82.8779 16.44C83.7739 17.304 84.4699 18.32 84.9659 19.488C85.4619 20.656 85.7099 21.944 85.7099 23.352C85.7099 24.76 85.4619 26.056 84.9659 27.24C84.4699 28.408 83.7739 29.424 82.8779 30.288C81.9819 31.152 80.9259 31.824 79.7099 32.304C78.4939 32.768 77.1579 33 75.7019 33H73.0379ZM71.4539 33V13.704H72.1739V33H71.4539ZM68.2859 33V13.704H69.0059V33H68.2859ZM69.8699 33V13.704H70.5899V33H69.8699ZM73.0379 31.416V30.696H75.6779C77.1979 30.696 78.5339 30.384 79.6859 29.76C80.8379 29.136 81.7419 28.272 82.3979 27.168C83.0539 26.048 83.3819 24.776 83.3819 23.352C83.3819 21.912 83.0539 20.64 82.3979 19.536C81.7419 18.432 80.8379 17.568 79.6859 16.944C78.5339 16.32 77.1979 16.008 75.6779 16.008H73.0379V15.288H75.7019C77.3499 15.288 78.8059 15.64 80.0699 16.344C81.3339 17.032 82.3259 17.984 83.0459 19.2C83.7659 20.4 84.1259 21.784 84.1259 23.352C84.1259 24.92 83.7659 26.312 83.0459 27.528C82.3259 28.744 81.3339 29.696 80.0699 30.384C78.8059 31.072 77.3499 31.416 75.7019 31.416H73.0379ZM73.0379 29.832V29.112H75.6779C76.8939 29.112 77.9579 28.872 78.8699 28.392C79.7819 27.912 80.4939 27.24 81.0059 26.376C81.5179 25.496 81.7739 24.488 81.7739 23.352C81.7739 22.2 81.5179 21.192 81.0059 20.328C80.4939 19.464 79.7819 18.792 78.8699 18.312C77.9579 17.832 76.8939 17.592 75.6779 17.592H73.0379V16.872H75.7019C77.0459 16.872 78.2299 17.152 79.2539 17.712C80.2779 18.256 81.0779 19.016 81.6539 19.992C82.2299 20.952 82.5179 22.072 82.5179 23.352C82.5179 24.632 82.2299 25.76 81.6539 26.736C81.0779 27.712 80.2779 28.472 79.2539 29.016C78.2299 29.56 77.0459 29.832 75.7019 29.832H73.0379ZM90.7899 33V13.704H91.5099V33H90.7899ZM87.6219 33V13.704H88.3419V33H87.6219ZM89.2059 33V13.704H89.9259V33H89.2059ZM97.0711 33V13.704H97.7911V33H97.0711ZM93.9031 33V13.704H94.6231V33H93.9031ZM95.4871 33V13.704H96.2071V33H95.4871ZM98.6551 14.424V13.704H108.231V14.424H98.6551ZM98.6551 16.008V15.288H108.231V16.008H98.6551ZM98.6551 17.592V16.872H108.231V17.592H98.6551ZM98.6551 22.128V21.408H106.863V22.128H98.6551ZM98.6551 23.712V22.992H106.863V23.712H98.6551ZM98.6551 25.296V24.576H106.863V25.296H98.6551ZM113.313 33V13.704H114.033V33H113.313ZM110.145 33V13.704H110.865V33H110.145ZM111.729 33V13.704H112.449V33H111.729ZM114.897 14.424V13.704H124.473V14.424H114.897ZM114.897 16.008V15.288H124.473V16.008H114.897ZM114.897 17.592V16.872H124.473V17.592H114.897ZM114.897 22.128V21.408H123.105V22.128H114.897ZM114.897 23.712V22.992H123.105V23.712H114.897ZM114.897 25.296V24.576H123.105V25.296H114.897ZM135.423 23.904L128.775 13.704H129.639L136.311 23.904H135.423ZM131.631 23.904L124.983 13.704H125.847L132.495 23.904H131.631ZM133.551 23.904L126.879 13.704H127.743L134.391 23.904H133.551ZM134.895 20.136L134.439 19.464L138.279 13.704H139.143L134.895 20.136ZM135.855 21.624L135.423 20.928L140.175 13.704H141.039L135.855 21.624ZM136.815 23.088L136.359 22.416L142.071 13.704H142.935L136.815 23.088ZM135.183 33V24.792H135.903V33H135.183ZM132.015 33V24.792H132.735V33H132.015ZM133.599 33V24.792H134.319V33H133.599Z" fill="white"/>
</svg>
