<svg width="177" height="33" viewBox="0 0 177 33" fill="none" xmlns="http://www.w3.org/2000/svg">
<g clip-path="url(#clip0_1_132)">
<path d="M15.1731 0.675781V28.4833L21.4694 30.478V7.16186C21.4694 6.0631 21.9593 5.33358 22.745 5.58459C23.7722 5.86945 23.9718 6.88156 23.9718 7.96804V17.2799C27.8909 19.1768 30.9766 17.2789 30.9766 12.274C30.9766 7.15976 29.1676 4.88137 23.8444 3.04941C21.7452 2.35058 17.8539 1.17096 15.1731 0.675781Z" fill="black"/>
<path d="M22.6669 26.4127L32.7792 22.8133C33.9233 22.3894 34.0981 21.8133 33.1722 21.5106C32.232 21.2022 30.5533 21.2904 29.3974 21.7056L22.6669 24.0798V20.2915L23.0523 20.1643C23.0523 20.1643 25.0006 19.4741 27.7406 19.1769C30.4754 18.8772 33.8294 19.2161 36.4655 20.2096C39.4349 21.1529 39.7677 22.5288 39.0164 23.4864C38.2543 24.4341 36.4063 25.1196 36.4063 25.1196L22.6669 30.0551M3.63688 26.0296C0.592137 25.1815 0.0845048 23.3894 1.47356 22.3541C2.75457 21.4087 4.93648 20.697 4.93648 20.697L13.9558 17.4813V21.1413L7.47131 23.4655C6.32273 23.8765 6.15048 24.4546 7.07576 24.757C8.01735 25.0717 9.68847 24.9872 10.8377 24.563L13.9558 23.4388V26.7064C13.7548 26.74 13.5313 26.7741 13.3273 26.8088C10.2187 27.3248 6.90684 27.1128 3.63688 26.0296ZM37.41 28.5815C37.41 28.6743 37.3879 28.7346 37.3406 28.7651C37.2862 28.802 37.2146 28.8206 37.1248 28.8206H36.6726V28.3592H37.1511C37.219 28.3592 37.2695 28.3708 37.3102 28.3866C37.3764 28.419 37.41 28.4841 37.41 28.5816M37.737 29.6397C37.7142 29.633 37.6984 29.6106 37.6851 29.5725C37.6777 29.5314 37.6739 29.4897 37.6735 29.448L37.6661 29.2387C37.6628 29.1419 37.6444 29.0665 37.6037 29.0216C37.5835 28.9861 37.5476 28.9637 37.5132 28.9391C37.5581 28.8983 37.5995 28.8563 37.6344 28.8104C37.6747 28.7453 37.6982 28.6571 37.6982 28.5629C37.6982 28.3708 37.6156 28.2342 37.4546 28.1586C37.3742 28.1245 37.2695 28.1024 37.145 28.1024H36.3814V29.7448H36.6726V29.0761H37.1164C37.1992 29.0761 37.2546 29.0866 37.2953 29.1002C37.3502 29.1352 37.3799 29.1882 37.3835 29.2791L37.3978 29.5352C37.4021 29.6006 37.4065 29.6397 37.41 29.6694L37.4318 29.726L37.4377 29.7448H37.7573V29.6513M35.7831 28.9607C35.7831 28.6253 35.9087 28.3175 36.1381 28.0894C36.3708 27.859 36.6853 27.73 37.0127 27.7309C37.339 27.7309 37.6447 27.8565 37.874 28.0894C38.1055 28.3175 38.2304 28.6253 38.2304 28.9607C38.2301 29.2836 38.1018 29.5932 37.8735 29.8216C37.6452 30.0499 37.3356 30.1784 37.0127 30.1787C36.686 30.1798 36.372 30.0526 36.1381 29.8244C36.025 29.7109 35.9354 29.5762 35.8745 29.428C35.8135 29.2798 35.7825 29.121 35.7831 28.9607ZM37.0127 30.4306C37.4063 30.4306 37.7719 30.2752 38.0506 30.0003C38.326 29.7204 38.4813 29.3548 38.4813 28.9607C38.482 28.7669 38.4443 28.5748 38.3704 28.3956C38.2965 28.2164 38.1878 28.0536 38.0506 27.9167C37.9153 27.779 37.7537 27.6699 37.5754 27.5958C37.3971 27.5217 37.2058 27.4841 37.0127 27.4852C36.1957 27.4852 35.5349 28.1447 35.5349 28.9607C35.5349 29.3547 35.6873 29.7202 35.9626 30.0003C36.2426 30.2761 36.6198 30.4306 37.0127 30.4306ZM59.8632 7.97325L52.2596 7.96992C52.245 7.96964 52.231 7.97509 52.2204 7.9851C52.2098 7.99511 52.2036 8.00887 52.2031 8.02342V25.8069C52.2031 25.8353 52.2282 25.8619 52.2596 25.8619H55.3412L55.3954 25.8069L55.3989 9.95379L55.4171 9.92748L58.9456 9.92081C60.2303 9.92081 60.936 11.2153 60.936 13.5616C60.936 15.9091 60.2303 17.2066 58.9456 17.2066L56.822 17.2043C56.7902 17.2043 56.7686 17.2285 56.7686 17.2589V19.104C56.7686 19.1399 56.7902 19.1619 56.822 19.1619H59.8632C60.936 19.1619 61.9869 18.6646 62.7452 17.8102C63.6434 16.7963 64.1165 15.3322 64.1165 13.5777C64.1165 10.178 62.4559 7.97325 59.8632 7.97325ZM69.1563 7.96992H66.0728C66.0377 7.96992 66.0127 7.99465 66.0127 8.02342V25.8069C66.0127 25.8356 66.0377 25.8619 66.0728 25.8619H69.1565L69.213 25.8069V8.02342L69.1563 7.96992ZM82.6044 12.2987C82.6044 12.2671 82.5767 12.2434 82.5463 12.2434H77.0552C72.1313 12.2434 71.5017 15.8577 71.5017 19.0342L71.5056 21.7812C71.5056 24.1452 72.9757 25.8618 74.9969 25.8618H77.9929L78.0471 25.8069V23.9637C78.0471 23.9337 78.0217 23.9068 77.9929 23.9068L75.8529 23.9105C75.36 23.9003 74.6961 23.6918 74.6961 21.9968V19.0308C74.6938 17.0599 74.8773 15.7998 75.2865 15.0829C75.7298 14.2918 76.4275 14.1855 77.0552 14.1855H79.3956L79.4155 14.2134L79.4125 25.8069C79.4125 25.8349 79.4363 25.8618 79.4691 25.8618H82.547C82.5774 25.8618 82.6046 25.8349 82.6046 25.8069M104.785 15.4118L103.267 15.296C102.128 15.198 101.282 14.5674 101.282 12.7016C101.282 10.523 102.259 9.92695 103.563 9.92695H107.766L107.821 9.87275V8.0236L107.766 7.97045H107.678L103.125 7.9715C100.256 7.9715 98.2166 9.65612 98.2166 13.0136V13.1597C98.2166 15.8091 99.8467 17.7212 102.276 17.907L103.787 18.0189C104.94 18.1063 105.658 19.1371 105.658 20.7016V21.1415C105.658 22.1196 105.414 23.9091 103.316 23.9091H98.9493C98.9345 23.9095 98.9205 23.9157 98.9103 23.9263C98.9 23.937 98.8943 23.9512 98.8944 23.9659V25.8067L98.9493 25.8618H104.371C106.041 25.8618 108.838 25.1859 108.838 20.6391C108.838 18.9917 108.464 17.6933 107.706 16.7551C107.059 15.9491 106.101 15.513 104.785 15.4118ZM130.039 12.2987C130.038 12.284 130.033 12.27 130.022 12.2597C130.012 12.2493 129.998 12.2435 129.983 12.2434H124.48C119.567 12.2434 118.931 15.8577 118.931 19.0342L118.935 21.7812C118.935 24.1452 120.404 25.8618 122.435 25.8618H125.423L125.479 25.8069V23.9637C125.478 23.9489 125.472 23.9348 125.462 23.9242C125.452 23.9136 125.438 23.9074 125.423 23.9068L123.282 23.9105C122.791 23.9003 122.133 23.6918 122.131 21.9968V19.0308C122.131 17.0599 122.316 15.7998 122.716 15.0829C123.16 14.2918 123.862 14.1855 124.479 14.1855H126.83L126.853 14.2134L126.848 25.8069C126.848 25.8349 126.873 25.8618 126.904 25.8618H129.986C130.016 25.8618 130.039 25.8349 130.039 25.8069M117.65 12.2437H114.305L114.288 12.2232V9.98221C114.288 9.95239 114.265 9.9273 114.234 9.9273H111.154C111.122 9.9273 111.095 9.95239 111.095 9.98221V21.7828C111.095 24.1466 112.568 25.8619 114.597 25.8619H116.803C116.835 25.8619 116.86 25.8353 116.86 25.8069V23.9658C116.86 23.9356 116.835 23.9072 116.803 23.9072H115.449C115.102 23.9019 114.288 23.8844 114.285 22.1429V14.1985L114.304 14.1806C115.328 14.1859 117.65 14.1806 117.65 14.1806L117.705 14.1301V12.2988C117.705 12.2843 117.699 12.2704 117.689 12.2601C117.679 12.2498 117.665 12.2439 117.65 12.2437ZM139.164 12.2437H135.838L135.815 12.2232V9.98221L135.765 9.9273H132.678C132.663 9.9273 132.649 9.93302 132.638 9.94326C132.627 9.95351 132.621 9.96747 132.621 9.98221V21.7828C132.621 24.1466 134.092 25.8619 136.119 25.8619H138.325C138.332 25.8619 138.339 25.8605 138.346 25.8577C138.352 25.855 138.358 25.8509 138.364 25.8458C138.369 25.8406 138.373 25.8346 138.375 25.8279C138.378 25.8212 138.379 25.8141 138.379 25.8069V23.9658C138.379 23.9356 138.358 23.9072 138.325 23.9072H136.971C136.622 23.9019 135.815 23.8844 135.815 22.1429V14.1985L135.834 14.1806C136.851 14.1859 139.164 14.1806 139.164 14.1806L139.219 14.1301V12.2988C139.218 12.2844 139.213 12.2707 139.202 12.2604C139.192 12.2502 139.178 12.2442 139.164 12.2437ZM144.258 12.2437H141.178C141.163 12.2439 141.149 12.2497 141.139 12.26C141.128 12.2703 141.122 12.2842 141.122 12.2988V25.8069L141.178 25.8619H144.258C144.265 25.8621 144.272 25.8607 144.279 25.858C144.286 25.8553 144.292 25.8513 144.298 25.8462C144.303 25.8411 144.307 25.835 144.31 25.8282C144.313 25.8215 144.315 25.8142 144.315 25.8069V12.2988C144.315 12.2914 144.313 12.2841 144.311 12.2772C144.308 12.2704 144.303 12.2642 144.298 12.259C144.293 12.2539 144.286 12.2498 144.28 12.2472C144.273 12.2446 144.265 12.2434 144.258 12.2437ZM144.258 7.96992H141.178L141.122 8.02342V10.606C141.122 10.6374 141.149 10.6603 141.178 10.6603H144.258C144.292 10.6603 144.315 10.6374 144.315 10.606V8.02342C144.315 7.99465 144.292 7.96992 144.258 7.96992ZM165.571 12.2437H160.073C160.059 12.2439 160.045 12.2498 160.035 12.2601C160.025 12.2704 160.019 12.2843 160.019 12.2988L160.017 25.8069L160.069 25.8619H163.155L163.207 25.8069L163.203 14.2101L163.224 14.1876L165.568 14.1859C166.202 14.1859 166.898 14.2881 167.342 15.0212C167.749 15.6835 167.934 16.848 167.934 18.6756C167.937 18.7546 167.932 25.8069 167.932 25.8069C167.932 25.8353 167.956 25.8619 167.986 25.8619H171.059C171.092 25.8619 171.117 25.8353 171.117 25.8069V19.0326C171.117 15.8577 170.483 12.2437 165.571 12.2437ZM154.124 23.0128C153.639 23.8114 152.87 23.9181 152.171 23.9181C151.48 23.9181 150.707 23.8114 150.217 23.013C149.775 22.2943 149.571 21.0352 149.571 19.0501V19.0343C149.571 16.6914 149.859 15.3602 150.504 14.7263C150.89 14.3416 151.39 14.1855 152.171 14.1855C152.964 14.1855 153.459 14.3416 153.844 14.7263C154.483 15.3602 154.772 16.697 154.772 19.0501C154.772 21.0379 154.567 22.2978 154.124 23.0128ZM152.171 12.2439C147.025 12.2439 146.368 15.8751 146.368 19.0503C146.368 22.2289 147.025 25.8719 152.171 25.8719C157.317 25.8719 157.973 22.2289 157.973 19.0503C157.973 15.8751 157.317 12.2439 152.171 12.2439ZM84.343 12.2437L84.3074 12.2972L88.878 25.6816C88.8856 25.7116 88.8856 25.7579 88.8759 25.7874L86.3025 32.4143C86.2916 32.4455 86.3058 32.4687 86.3362 32.4687H89.0161C89.0331 32.4684 89.0496 32.463 89.0637 32.4534C89.0777 32.4437 89.0885 32.4301 89.0948 32.4143L97.118 12.2972C97.1294 12.2651 97.1152 12.2437 97.0838 12.2437H94.1598C94.1434 12.2444 94.1277 12.2499 94.1144 12.2594C94.1011 12.2689 94.0908 12.282 94.0849 12.2972L90.6881 21.0924H90.65L87.6511 12.2974C87.644 12.2651 87.6097 12.2437 87.5791 12.2437M175.079 24.0163C175.079 24.1056 175.054 24.1636 175.007 24.1984C174.954 24.2361 174.882 24.252 174.794 24.252H174.342V23.7923H174.819C174.888 23.7923 174.939 23.8028 174.977 23.8207C175.043 23.8526 175.079 23.9168 175.079 24.0163ZM175.404 25.0737C175.382 25.0654 175.366 25.043 175.352 25.0056C175.346 24.9643 175.343 24.9227 175.343 24.8811L175.335 24.6744C175.331 24.5732 175.313 24.4976 175.27 24.4562C175.25 24.4199 175.215 24.3952 175.182 24.3697C175.225 24.3299 175.267 24.2894 175.302 24.2424C175.343 24.1773 175.366 24.0926 175.366 23.9986C175.366 23.8028 175.283 23.6672 175.123 23.5921C175.04 23.5585 174.939 23.536 174.813 23.536H174.051V25.1778H174.342V24.5081H174.785C174.866 24.5081 174.925 24.5197 174.962 24.5329C175.017 24.5679 175.047 24.6218 175.052 24.7118L175.066 24.9693C175.07 25.0328 175.074 25.0737 175.079 25.0994L175.099 25.158L175.105 25.1778H175.425V25.0826M173.451 24.3938C173.451 24.0573 173.577 23.7518 173.808 23.5206C174.04 23.292 174.353 23.1639 174.679 23.1638C175.006 23.1638 175.311 23.2901 175.541 23.5206C175.773 23.7519 175.9 24.0573 175.9 24.3938C175.9 25.0661 175.351 25.6122 174.679 25.6122C174.353 25.6126 174.041 25.4853 173.808 25.2575C173.694 25.1444 173.604 25.0098 173.543 24.8615C173.481 24.7132 173.45 24.5542 173.451 24.3938ZM174.679 25.8619C175.074 25.8619 175.441 25.7067 175.721 25.4336C175.994 25.1566 176.148 24.7831 176.148 24.3938C176.149 24.0027 175.996 23.6269 175.721 23.349C175.584 23.2117 175.422 23.1029 175.243 23.0289C175.064 22.9549 174.873 22.9173 174.679 22.9182C174.485 22.9183 174.294 22.9564 174.115 23.0306C173.936 23.1048 173.773 23.2135 173.636 23.3505C173.499 23.4876 173.391 23.6502 173.317 23.8292C173.243 24.0082 173.205 24.2001 173.205 24.3938C173.205 24.7862 173.356 25.155 173.632 25.4336C173.912 25.7077 174.287 25.8614 174.679 25.8619Z" fill="black"/>
</g>
<defs>
<clipPath id="clip0_1_132">
<rect width="176.203" height="31.9279" fill="white" transform="translate(0.0845032 0.608765)"/>
</clipPath>
</defs>
</svg>
