<svg width="65" height="65" viewBox="0 0 65 65" fill="none" xmlns="http://www.w3.org/2000/svg">
<circle cx="32.5" cy="32.5" r="32.5" fill="#E9F7F3"/>
<path d="M47.373 17.8887C47.3607 17.8294 47.3317 17.7748 47.2895 17.7314C47.2472 17.688 47.1934 17.6576 47.1345 17.6437C43.2047 16.6826 34.1267 20.1072 29.2032 25.0271C28.3258 25.8973 27.5256 26.8423 26.812 27.8512C25.2944 27.7139 23.7768 27.8295 22.4847 28.3932C18.836 29.9975 17.7744 34.1875 17.4781 35.9861C17.4621 36.0847 17.4689 36.1856 17.4982 36.2811C17.5274 36.3766 17.5782 36.4641 17.6467 36.5367C17.7152 36.6094 17.7995 36.6653 17.8931 36.7002C17.9866 36.7351 18.087 36.7479 18.1863 36.7377L24.0449 36.0945C24.049 36.5364 24.0755 36.9778 24.1244 37.417C24.155 37.7206 24.2904 38.004 24.5074 38.2184L26.7758 40.4868C26.9905 40.704 27.2742 40.8394 27.578 40.8699C28.0145 40.9185 28.4532 40.9451 28.8925 40.9494L28.25 46.8029C28.24 46.9021 28.2529 47.0023 28.2878 47.0957C28.3227 47.1891 28.3785 47.2733 28.4511 47.3416C28.5237 47.41 28.611 47.4608 28.7063 47.4901C28.8017 47.5193 28.9024 47.5263 29.0009 47.5103C30.8003 47.2213 34.9989 46.1597 36.5938 42.5117C37.1575 41.2182 37.2731 39.7085 37.143 38.1982C38.155 37.4852 39.1026 36.685 39.9751 35.8069C44.9167 30.8929 48.3196 22.0143 47.373 17.8887ZM35.5828 29.441C35.1512 29.0095 34.8573 28.4597 34.7381 27.8611C34.619 27.2625 34.6801 26.642 34.9136 26.0782C35.1471 25.5143 35.5426 25.0323 36.0501 24.6932C36.5576 24.3541 37.1542 24.1731 37.7645 24.1731C38.3749 24.1731 38.9715 24.3541 39.479 24.6932C39.9864 25.0323 40.3819 25.5143 40.6155 26.0782C40.849 26.642 40.9101 27.2625 40.7909 27.8611C40.6718 28.4597 40.3779 29.0095 39.9462 29.441C39.6599 29.7279 39.3199 29.9556 38.9455 30.1109C38.5712 30.2662 38.1698 30.3461 37.7645 30.3461C37.3592 30.3461 36.9579 30.2662 36.5835 30.1109C36.2092 29.9556 35.8691 29.7279 35.5828 29.441Z" stroke="#37957E" stroke-width="2.3125" stroke-linecap="round" stroke-linejoin="round"/>
<path d="M21.9232 39.4375C21.2028 39.5259 20.5326 39.8525 20.019 40.3654C18.7457 41.643 18.625 46.375 18.625 46.375C18.625 46.375 23.3598 46.2543 24.6339 44.9796C25.1488 44.4668 25.476 43.7954 25.5625 43.0739" stroke="#37957E" stroke-width="2.3125" stroke-linecap="round" stroke-linejoin="round"/>
</svg>
