<svg width="136" height="41" viewBox="0 0 136 41" fill="none" xmlns="http://www.w3.org/2000/svg">
<g clip-path="url(#clip0_1_112)">
<path d="M20.4213 0.0668945C9.25624 0.0668945 0.204773 9.11812 0.204773 20.2831C0.204773 31.4486 9.25624 40.4991 20.4213 40.4991C31.5875 40.4991 40.638 31.4486 40.638 20.2831C40.638 9.11884 31.5875 0.0678602 20.421 0.0678602L20.4213 0.0668945ZM29.6924 29.2245C29.3303 29.8184 28.553 30.0067 27.9591 29.6422C23.2125 26.7428 17.237 26.0862 10.1999 27.694C9.52179 27.8485 8.84584 27.4236 8.69134 26.7452C8.53611 26.0669 8.9593 25.3909 9.63912 25.2364C17.3401 23.477 23.9459 24.2346 29.2748 27.4912C29.8686 27.8557 30.0569 28.6307 29.6924 29.2245ZM32.1669 23.7199C31.7106 24.4615 30.7401 24.6957 29.999 24.2394C24.5648 20.8992 16.2813 19.9319 9.85373 21.883C9.02014 22.1348 8.13971 21.665 7.88672 20.8328C7.63565 19.9992 8.10568 19.1205 8.93782 18.867C16.2799 16.6393 25.4074 17.7184 31.6478 21.5532C32.389 22.0095 32.6231 22.9797 32.1669 23.7199ZM32.3793 17.9878C25.8636 14.1177 15.1136 13.7619 8.89268 15.65C7.89372 15.953 6.8373 15.389 6.53457 14.3901C6.23184 13.3906 6.7953 12.3349 7.79498 12.0312C14.9362 9.86336 26.8076 10.2822 34.3092 14.7355C35.2096 15.2688 35.5041 16.4293 34.9706 17.3266C34.4395 18.2251 33.2759 18.5213 32.3803 17.9878H32.3793ZM55.2071 18.7294C51.7163 17.897 51.0959 17.3128 51.0959 16.0852C51.0959 14.9255 52.1871 14.145 53.8118 14.145C55.3858 14.145 56.9453 14.7377 58.5821 15.9578C58.6304 15.9947 58.6931 16.0094 58.7535 15.9998C58.8162 15.9906 58.8694 15.9571 58.9056 15.9066L60.6099 13.5041C60.6799 13.4051 60.6606 13.2687 60.5665 13.1931C58.6183 11.6305 56.4263 10.8708 53.8625 10.8708C50.0941 10.8708 47.4603 13.1325 47.4603 16.3687C47.4603 19.8389 49.7319 21.0677 53.6573 22.0162C56.996 22.7856 57.5609 23.4302 57.5609 24.5822C57.5609 25.8593 56.4214 26.6535 54.5867 26.6535C52.5492 26.6535 50.8859 25.9655 49.027 24.3577C48.9812 24.3166 48.9184 24.2997 48.8605 24.3022C48.7977 24.307 48.7422 24.336 48.7035 24.3818L46.7916 26.6559C46.7119 26.7525 46.7216 26.8925 46.8133 26.9746C48.9763 28.9059 51.6367 29.9246 54.5095 29.9246C58.57 29.9246 61.1941 27.706 61.1941 24.2708C61.2014 21.3721 59.4656 19.7668 55.2144 18.7326L55.2071 18.7294ZM70.3823 15.2869C68.6224 15.2869 67.1787 15.9802 65.9862 17.4009V15.8018C65.9862 15.6756 65.8848 15.5727 65.7592 15.5727H62.633C62.5074 15.5727 62.406 15.6756 62.406 15.8018V33.5699C62.406 33.6955 62.5074 33.7993 62.633 33.7993H65.7592C65.8848 33.7993 65.9862 33.6955 65.9862 33.5699V27.9619C67.1787 29.2969 68.6224 29.9512 70.3823 29.9512C73.6534 29.9512 76.9655 27.4333 76.9655 22.6198C76.9704 17.8053 73.6582 15.2867 70.3847 15.2867L70.3823 15.2869ZM73.3299 22.6198C73.3299 25.0698 71.8211 26.7814 69.658 26.7814C67.5215 26.7814 65.9089 24.9926 65.9089 22.6198C65.9089 20.2467 67.5215 18.4583 69.658 18.4583C71.7849 18.4581 73.3299 20.2081 73.3299 22.6198ZM85.4511 15.2869C81.2385 15.2869 77.9384 18.5305 77.9384 22.6721C77.9384 26.7694 81.2168 29.9777 85.4004 29.9777C89.6275 29.9777 92.9373 26.7452 92.9373 22.6198C92.9373 18.5083 89.6493 15.2874 85.4511 15.2874V15.2869ZM85.4511 26.8056C83.2108 26.8056 81.521 25.0047 81.521 22.6186C81.521 20.2216 83.1529 18.4822 85.4004 18.4822C87.6552 18.4822 89.3548 20.2824 89.3548 22.6709C89.3548 25.0674 87.7132 26.8056 85.4511 26.8056ZM101.932 15.5727H98.4922V12.0563C98.4922 11.9303 98.3908 11.8275 98.2652 11.8275H95.139C95.0134 11.8275 94.9096 11.9303 94.9096 12.0563V15.5727H93.408C93.2825 15.5727 93.1811 15.6756 93.1811 15.8018V18.488C93.1811 18.614 93.2825 18.7171 93.408 18.7171H94.9096V25.6685C94.9096 28.4762 96.3074 29.9005 99.0667 29.9005C100.187 29.9005 101.116 29.6687 101.993 29.1714C102.065 29.1328 102.108 29.0555 102.108 28.9735V26.4145C102.108 26.3372 102.067 26.2624 102 26.2214C101.932 26.1779 101.848 26.1755 101.778 26.2117C101.177 26.5135 100.595 26.6535 99.943 26.6535C98.9412 26.6535 98.4922 26.1972 98.4922 25.1785V18.7183H101.932C102.058 18.7183 102.159 18.6155 102.159 18.4892V15.8033C102.164 15.677 102.063 15.5742 101.935 15.5742L101.932 15.5727ZM113.916 15.5865V15.1546C113.916 13.8841 114.404 13.3175 115.495 13.3175C116.147 13.3175 116.67 13.4469 117.257 13.6424C117.329 13.6651 117.404 13.6538 117.462 13.6105C117.523 13.5673 117.556 13.498 117.556 13.4247V10.7909C117.556 10.6902 117.494 10.6011 117.395 10.5714C116.777 10.3872 115.985 10.1982 114.797 10.1982C111.912 10.1982 110.384 11.8239 110.384 14.8977V15.5592H108.882C108.757 15.5592 108.653 15.6621 108.653 15.7881V18.488C108.653 18.614 108.757 18.7171 108.882 18.7171H110.384V29.437C110.384 29.5649 110.488 29.6663 110.613 29.6663H113.737C113.865 29.6663 113.967 29.5649 113.967 29.437V18.7178H116.885L121.356 29.437C120.849 30.5619 120.35 30.7865 119.669 30.7865C119.118 30.7865 118.537 30.6223 117.945 30.2964C117.89 30.2674 117.822 30.2626 117.764 30.2795C117.704 30.3012 117.653 30.3447 117.629 30.4026L116.569 32.7274C116.518 32.8385 116.562 32.9664 116.668 33.0243C117.774 33.623 118.771 33.8789 120.004 33.8789C122.312 33.8789 123.589 32.8022 124.712 29.9101L130.134 15.8994C130.163 15.8289 130.153 15.7492 130.11 15.6867C130.069 15.6246 129.999 15.5872 129.924 15.5872H126.67C126.571 15.5872 126.484 15.6493 126.452 15.7408L123.119 25.2606L119.468 15.7345C119.435 15.6459 119.35 15.5872 119.256 15.5872H113.916V15.5865ZM106.968 15.5727H103.842C103.716 15.5727 103.612 15.6756 103.612 15.8018V29.437C103.612 29.5649 103.716 29.6663 103.842 29.6663H106.968C107.094 29.6663 107.197 29.5649 107.197 29.437V15.8028C107.197 15.6765 107.096 15.5737 106.968 15.5737V15.5727ZM105.423 9.36388C104.185 9.36388 103.18 10.3662 103.18 11.6044C103.18 12.8433 104.185 13.8469 105.423 13.8469C106.662 13.8469 107.663 12.8433 107.663 11.6044C107.663 10.3665 106.659 9.36388 105.423 9.36388ZM132.804 19.957C131.568 19.957 130.605 18.9636 130.605 17.7573C130.605 16.5509 131.58 15.5462 132.816 15.5462C134.052 15.5462 135.015 16.5393 135.015 17.7447C135.015 18.951 134.04 19.957 132.804 19.957ZM132.816 15.7649C131.689 15.7649 130.836 16.6605 130.836 17.7573C130.836 18.8535 131.684 19.7371 132.804 19.7371C133.931 19.7371 134.783 18.8422 134.783 17.7447C134.783 16.6485 133.936 15.7649 132.816 15.7649ZM133.304 17.9709L133.926 18.8419H133.4L132.84 18.0428H132.36V18.8419H131.92V16.5331H132.949C133.487 16.5331 133.84 16.8075 133.84 17.2696C133.842 17.6481 133.622 17.8794 133.306 17.9709H133.304ZM132.932 16.9292H132.36V17.6595H132.932C133.217 17.6595 133.388 17.5197 133.388 17.294C133.388 17.0564 133.217 16.9292 132.932 16.9292Z" fill="#1ED760"/>
</g>
<defs>
<clipPath id="clip0_1_112">
<rect width="134.949" height="40.5571" fill="white" transform="translate(0.143677)"/>
</clipPath>
</defs>
</svg>
